<svg width="500" height="500" viewBox="0 0 500 500" fill="none" xmlns="http://www.w3.org/2000/svg">
<g clip-path="url(#clip0_1_55)">
<path d="M144.768 632.045L502.778 651C516.853 443.206 518.527 314.349 524.336 63.3832L502.778 23L472.751 52.6693L441.955 23L414.238 52.6693L384.981 23L354.185 52.6693L326.468 23L297.981 52.6693L269.494 23L238.697 52.6693L210.981 23L183.264 52.6693L144.768 632.045Z" fill="url(#paint0_linear_1_55)"/>
<path d="M524.336 63.3832C518.527 314.349 516.853 443.206 502.778 651L585.159 525.73L575.15 67.5039L554.362 27.1207L524.336 63.3832Z" fill="url(#paint1_linear_1_55)"/>
<path d="M666 641.934L632.894 67.5039L606.717 27.1207L575.15 67.5039L585.159 525.73L666 641.934Z" fill="url(#paint2_linear_1_55)"/>
<path d="M502.778 651C558.794 639.155 612.294 638.206 666 641.934L585.159 525.73L502.778 651Z" fill="#D9D9D9"/>
<path d="M502.778 651C558.794 639.155 612.294 638.206 666 641.934L585.159 525.73L502.778 651Z" fill="url(#paint3_linear_1_55)"/>
<path d="M502.778 651L144.768 632.045L183.264 52.6693L210.981 23L238.697 52.6693L269.494 23L297.981 52.6693L326.468 23L354.185 52.6693L384.981 23L414.238 52.6693L441.955 23L472.751 52.6693L502.778 23L524.336 63.3832M502.778 651C516.853 443.206 518.527 314.349 524.336 63.3832M502.778 651C558.794 639.155 612.294 638.206 666 641.934M502.778 651L585.159 525.73M524.336 63.3832L554.362 27.1207L575.15 67.5039M666 641.934L632.894 67.5039L606.717 27.1207L575.15 67.5039M666 641.934L585.159 525.73M575.15 67.5039L585.159 525.73" stroke="#2D153B" stroke-width="20"/>
<path d="M443.495 368.318H235.618" stroke="#340F48" stroke-width="24" stroke-linecap="round" stroke-linejoin="round"/>
<path d="M331.857 208.433C331.857 242.115 306.349 269.42 274.883 269.42C243.418 269.42 217.91 242.115 217.91 208.433C217.91 174.751 243.418 147.446 274.883 147.446C306.349 147.446 331.857 174.751 331.857 208.433Z" fill="#2D153B"/>
<path d="M487.38 208.433C487.38 242.115 461.872 269.42 430.406 269.42C398.941 269.42 373.433 242.115 373.433 208.433C373.433 174.751 398.941 147.446 430.406 147.446C461.872 147.446 487.38 174.751 487.38 208.433Z" fill="#2D153B"/>
<path d="M202.651 470.921C202.651 470.921 305.808 343.879 316.459 333.703C327.11 323.528 354.955 358.428 346.486 383.152C338.016 407.877 238.407 498.056 238.407 498.056C214.062 525.191 186.674 492.968 202.651 470.921Z" fill="#340F48" stroke="#340F48" stroke-width="16"/>
<path d="M65.4667 385.625C110.808 384.169 117.529 435.817 80.0951 452.381L243.317 416.907C259.485 395.514 257.945 371.614 238.697 348.872L65.4667 385.625Z" fill="url(#paint4_linear_1_55)"/>
<path d="M334.167 397.163C360.344 385.625 347.255 331.231 321.848 331.231L238.697 348.872C257.945 371.614 259.485 395.514 243.317 416.907L334.167 397.163Z" fill="url(#paint5_linear_1_55)"/>
<path d="M65.4667 385.625C35.4401 397.163 48.5286 452.381 80.0951 452.381C117.529 435.817 110.808 384.169 65.4667 385.625Z" fill="#DA434A"/>
<path d="M80.0951 452.381C48.5286 452.381 35.4401 397.163 65.4667 385.625M80.0951 452.381C117.529 435.817 110.808 384.169 65.4667 385.625M80.0951 452.381L243.317 416.907M65.4667 385.625L238.697 348.872M238.697 348.872L321.848 331.231C347.255 331.231 360.344 385.625 334.167 397.163L243.317 416.907M238.697 348.872C257.945 371.614 259.485 395.514 243.317 416.907" stroke="#2D153B" stroke-width="16"/>
<path d="M47.7587 342.757C6.18334 259.519 67.7765 279.298 68.5464 220.784C69.3163 162.269 -23.8433 179.576 63.157 42.7679C34.6702 152.379 126.29 179.576 116.281 224.904C108.092 261.991 54.6879 302.374 47.7587 342.757Z" fill="url(#paint6_linear_1_55)" stroke="#340F48" stroke-width="12" stroke-linejoin="round"/>
</g>
<defs>
<linearGradient id="paint0_linear_1_55" x1="387.291" y1="474.633" x2="457.211" y2="591.729" gradientUnits="userSpaceOnUse">
<stop offset="0.193224" stop-color="white"/>
<stop offset="1" stop-color="#CAC9C7"/>
</linearGradient>
<linearGradient id="paint1_linear_1_55" x1="405.384" y1="23" x2="405.384" y2="651" gradientUnits="userSpaceOnUse">
<stop offset="0.5" stop-color="#964ABB"/>
<stop offset="1" stop-color="#7700FF"/>
</linearGradient>
<linearGradient id="paint2_linear_1_55" x1="405.384" y1="23" x2="405.384" y2="651" gradientUnits="userSpaceOnUse">
<stop offset="0.5" stop-color="#964ABB"/>
<stop offset="1" stop-color="#7700FF"/>
</linearGradient>
<linearGradient id="paint3_linear_1_55" x1="405.384" y1="23" x2="405.384" y2="651" gradientUnits="userSpaceOnUse">
<stop offset="0.5" stop-color="#964ABB"/>
<stop offset="1" stop-color="#7700FF"/>
</linearGradient>
<linearGradient id="paint4_linear_1_55" x1="197.892" y1="348.538" x2="212.814" y2="422.34" gradientUnits="userSpaceOnUse">
<stop offset="0.504808" stop-color="#FEFFFD"/>
<stop offset="0.629808" stop-color="#C5C8D1"/>
</linearGradient>
<linearGradient id="paint5_linear_1_55" x1="197.892" y1="348.538" x2="212.814" y2="422.34" gradientUnits="userSpaceOnUse">
<stop offset="0.504808" stop-color="#FFBF82"/>
<stop offset="0.629808" stop-color="#AA7B5D"/>
</linearGradient>
<linearGradient id="paint6_linear_1_55" x1="70.7609" y1="56.79" x2="70.7609" y2="356.78" gradientUnits="userSpaceOnUse">
<stop stop-color="white"/>
<stop offset="1" stop-color="#999999"/>
</linearGradient>
<clipPath id="clip0_1_55">
<rect width="500" height="500" fill="white"/>
</clipPath>
</defs>
</svg>
